<svg width="1440" height="1600" viewBox="0 0 1440 1600" fill="none" xmlns="http://www.w3.org/2000/svg">
<g opacity="0.6">
<line x1="105.5" y1="2.18557e-08" x2="105.5" y2="934" stroke="#28282A" stroke-opacity="0.2" stroke-dasharray="3 3"/>
<line x1="225.5" y1="2.18557e-08" x2="225.5" y2="934" stroke="#28282A" stroke-opacity="0.2" stroke-dasharray="3 3"/>
<line x1="1440" y1="543.117" y2="543.117" stroke="#28282A" stroke-opacity="0.2" stroke-dasharray="3 3"/>
<line x1="1440" y1="606.273" y2="606.273" stroke="#28282A" stroke-opacity="0.2" stroke-dasharray="3 3"/>
<line x1="1440" y1="754.805" y2="754.805" stroke="#28282A" stroke-opacity="0.2" stroke-dasharray="3 3"/>
<line x1="1440" y1="790.367" y2="790.367" stroke="#28282A" stroke-opacity="0.2" stroke-dasharray="3 3"/>
<line x1="1440" y1="892.523" y2="892.523" stroke="#28282A" stroke-opacity="0.2" stroke-dasharray="3 3"/>
<line x1="1440" y1="389.117" y2="389.117" stroke="#28282A" stroke-opacity="0.2" stroke-dasharray="3 3"/>
<line x1="1440" y1="105.383" y2="105.383" stroke="#28282A" stroke-opacity="0.2" stroke-dasharray="3 3"/>
<line x1="1440" y1="260.641" y2="260.641" stroke="#28282A" stroke-opacity="0.2" stroke-dasharray="3 3"/>
<line x1="345.5" y1="2.18557e-08" x2="345.5" y2="934" stroke="#28282A" stroke-opacity="0.2" stroke-dasharray="3 3"/>
<line x1="465.5" y1="2.18557e-08" x2="465.5" y2="934" stroke="#28282A" stroke-opacity="0.2" stroke-dasharray="3 3"/>
<line x1="585.5" y1="2.18557e-08" x2="585.5" y2="934" stroke="#28282A" stroke-opacity="0.2" stroke-dasharray="3 3"/>
<line x1="705.5" y1="2.18557e-08" x2="705.5" y2="934" stroke="#28282A" stroke-opacity="0.2" stroke-dasharray="3 3"/>
<line x1="825.5" y1="2.18557e-08" x2="825.5" y2="934" stroke="#28282A" stroke-opacity="0.2" stroke-dasharray="3 3"/>
<line x1="945.5" y1="2.18557e-08" x2="945.5" y2="934" stroke="#28282A" stroke-opacity="0.2" stroke-dasharray="3 3"/>
<line x1="1065.5" y1="2.18557e-08" x2="1065.5" y2="934" stroke="#28282A" stroke-opacity="0.2" stroke-dasharray="3 3"/>
<line x1="1185.5" y1="2.18557e-08" x2="1185.5" y2="934" stroke="#28282A" stroke-opacity="0.2" stroke-dasharray="3 3"/>
<line x1="1305.5" y1="2.18557e-08" x2="1305.5" y2="934" stroke="#28282A" stroke-opacity="0.2" stroke-dasharray="3 3"/>
<line y1="-0.5" x2="19.8345" y2="-0.5" transform="matrix(-0.806677 0.590993 -0.806677 -0.590993 361 389.023)" stroke="#C9C9C9"/>
<line y1="-0.5" x2="35.95" y2="-0.5" transform="matrix(-0.806677 0.590993 -0.806677 -0.590993 375 389.023)" stroke="#C9C9C9"/>
<line y1="-0.5" x2="58.2637" y2="-0.5" transform="matrix(-0.806677 0.590993 -0.806677 -0.590993 392 388.289)" stroke="#C9C9C9"/>
<line y1="-0.5" x2="78.0982" y2="-0.5" transform="matrix(-0.806677 0.590993 -0.806677 -0.590993 408 388.289)" stroke="#C9C9C9"/>
<line y1="-0.5" x2="95.4533" y2="-0.5" transform="matrix(-0.806677 0.590993 -0.806677 -0.590993 423 388.289)" stroke="#C9C9C9"/>
<line y1="-0.5" x2="115.288" y2="-0.5" transform="matrix(-0.806677 0.590993 -0.806677 -0.590993 438 388.289)" stroke="#C9C9C9"/>
<line y1="-0.5" x2="132.643" y2="-0.5" transform="matrix(-0.806677 0.590993 -0.806677 -0.590993 453 388.289)" stroke="#C9C9C9"/>
<line y1="-0.5" x2="147.519" y2="-0.5" transform="matrix(-0.806677 0.590993 -0.806677 -0.590993 465 391.219)" stroke="#C9C9C9"/>
<line y1="-0.5" x2="147.519" y2="-0.5" transform="matrix(-0.806677 0.590993 -0.806677 -0.590993 464 403.672)" stroke="#C9C9C9"/>
<line y1="-0.5" x2="145.039" y2="-0.5" transform="matrix(-0.806677 0.590993 -0.806677 -0.590993 463 415.398)" stroke="#C9C9C9"/>
<line y1="-0.5" x2="145.039" y2="-0.5" transform="matrix(-0.806677 0.590993 -0.806677 -0.590993 463 427.117)" stroke="#C9C9C9"/>
<line y1="-0.5" x2="145.039" y2="-0.5" transform="matrix(-0.806677 0.590993 -0.806677 -0.590993 463 438.844)" stroke="#C9C9C9"/>
<line y1="-0.5" x2="147.519" y2="-0.5" transform="matrix(-0.806677 0.590993 -0.806677 -0.590993 464 449.102)" stroke="#C9C9C9"/>
<line y1="-0.5" x2="140.081" y2="-0.5" transform="matrix(-0.806677 0.590993 -0.806677 -0.590993 465 460.086)" stroke="#C9C9C9"/>
<line y1="-0.5" x2="117.767" y2="-0.5" transform="matrix(-0.806677 0.590993 -0.806677 -0.590993 462 473.273)" stroke="#C9C9C9"/>
<line y1="-0.5" x2="100.412" y2="-0.5" transform="matrix(-0.806677 0.590993 -0.806677 -0.590993 464 483.531)" stroke="#C9C9C9"/>
<line y1="-0.5" x2="81.8171" y2="-0.5" transform="matrix(-0.806677 0.590993 -0.806677 -0.590993 463 495.25)" stroke="#C9C9C9"/>
<line y1="-0.5" x2="61.9827" y2="-0.5" transform="matrix(-0.806677 0.590993 -0.806677 -0.590993 464 506.242)" stroke="#C9C9C9"/>
<line y1="-0.5" x2="44.6275" y2="-0.5" transform="matrix(-0.806677 0.590993 -0.806677 -0.590993 465 516.5)" stroke="#C9C9C9"/>
<line y1="-0.5" x2="24.7931" y2="-0.5" transform="matrix(-0.806677 0.590993 -0.806677 -0.590993 465 528.219)" stroke="#C9C9C9"/>
<line y1="-0.5" x2="4.95861" y2="-0.5" transform="matrix(-0.806677 0.590993 -0.806677 -0.590993 465 539.945)" stroke="#C9C9C9"/>
<line y1="-0.5" x2="26.3289" y2="-0.5" transform="matrix(-0.607698 0.794168 -0.607698 -0.794168 961 267.859)" stroke="#C9C9C9"/>
<line y1="-0.5" x2="47.7211" y2="-0.5" transform="matrix(-0.607698 0.794168 -0.607698 -0.794168 975 267.859)" stroke="#C9C9C9"/>
<line y1="-0.5" x2="77.341" y2="-0.5" transform="matrix(-0.607698 0.794168 -0.607698 -0.794168 992 266.555)" stroke="#C9C9C9"/>
<line y1="-0.5" x2="103.67" y2="-0.5" transform="matrix(-0.607698 0.794168 -0.607698 -0.794168 1008 266.555)" stroke="#C9C9C9"/>
<line y1="-0.5" x2="126.708" y2="-0.5" transform="matrix(-0.607698 0.794168 -0.607698 -0.794168 1023 266.555)" stroke="#C9C9C9"/>
<line y1="-0.5" x2="153.036" y2="-0.5" transform="matrix(-0.607698 0.794168 -0.607698 -0.794168 1038 266.555)" stroke="#C9C9C9"/>
<line y1="-0.5" x2="176.074" y2="-0.5" transform="matrix(-0.607698 0.794168 -0.607698 -0.794168 1053 266.555)" stroke="#C9C9C9"/>
<line y1="-0.5" x2="195.821" y2="-0.5" transform="matrix(-0.607698 0.794168 -0.607698 -0.794168 1065 271.781)" stroke="#C9C9C9"/>
<line y1="-0.5" x2="195.821" y2="-0.5" transform="matrix(-0.607698 0.794168 -0.607698 -0.794168 1064 294)" stroke="#C9C9C9"/>
<line y1="-0.5" x2="192.53" y2="-0.5" transform="matrix(-0.607698 0.794168 -0.607698 -0.794168 1063 314.906)" stroke="#C9C9C9"/>
<line y1="-0.5" x2="192.53" y2="-0.5" transform="matrix(-0.607698 0.794168 -0.607698 -0.794168 1063 335.812)" stroke="#C9C9C9"/>
<line y1="-0.5" x2="192.53" y2="-0.5" transform="matrix(-0.607698 0.794168 -0.607698 -0.794168 1063 356.727)" stroke="#C9C9C9"/>
<line y1="-0.5" x2="195.821" y2="-0.5" transform="matrix(-0.607698 0.794168 -0.607698 -0.794168 1064 375.023)" stroke="#C9C9C9"/>
<line y1="-0.5" x2="185.948" y2="-0.5" transform="matrix(-0.607698 0.794168 -0.607698 -0.794168 1065 394.625)" stroke="#C9C9C9"/>
<line y1="-0.5" x2="156.328" y2="-0.5" transform="matrix(-0.607698 0.794168 -0.607698 -0.794168 1062 418.148)" stroke="#C9C9C9"/>
<line y1="-0.5" x2="133.29" y2="-0.5" transform="matrix(-0.607698 0.794168 -0.607698 -0.794168 1064 436.445)" stroke="#C9C9C9"/>
<line y1="-0.5" x2="108.607" y2="-0.5" transform="matrix(-0.607698 0.794168 -0.607698 -0.794168 1063 457.352)" stroke="#C9C9C9"/>
<line y1="-0.5" x2="82.2777" y2="-0.5" transform="matrix(-0.607698 0.794168 -0.607698 -0.794168 1064 476.953)" stroke="#C9C9C9"/>
<line y1="-0.5" x2="59.2399" y2="-0.5" transform="matrix(-0.607698 0.794168 -0.607698 -0.794168 1065 495.25)" stroke="#C9C9C9"/>
<line y1="-0.5" x2="32.9111" y2="-0.5" transform="matrix(-0.607698 0.794168 -0.607698 -0.794168 1065 516.164)" stroke="#C9C9C9"/>
<line y1="-0.5" x2="6.58222" y2="-0.5" transform="matrix(-0.607698 0.794168 -0.607698 -0.794168 1065 537.07)" stroke="#C9C9C9"/>
</g>
<g opacity="0.6">
<line x1="105.5" y1="934" x2="105.5" y2="1868" stroke="#28282A" stroke-opacity="0.2" stroke-dasharray="3 3"/>
<line x1="225.5" y1="934" x2="225.5" y2="1868" stroke="#28282A" stroke-opacity="0.2" stroke-dasharray="3 3"/>
<line x1="1440" y1="1477.12" y2="1477.12" stroke="#28282A" stroke-opacity="0.2" stroke-dasharray="3 3"/>
<line x1="1440" y1="1540.27" y2="1540.27" stroke="#28282A" stroke-opacity="0.2" stroke-dasharray="3 3"/>
<line x1="1440" y1="1323.12" y2="1323.12" stroke="#28282A" stroke-opacity="0.2" stroke-dasharray="3 3"/>
<line x1="1440" y1="1039.38" y2="1039.38" stroke="#28282A" stroke-opacity="0.2" stroke-dasharray="3 3"/>
<line x1="1440" y1="1194.64" y2="1194.64" stroke="#28282A" stroke-opacity="0.2" stroke-dasharray="3 3"/>
<line x1="345.5" y1="934" x2="345.5" y2="1868" stroke="#28282A" stroke-opacity="0.2" stroke-dasharray="3 3"/>
<line x1="465.5" y1="934" x2="465.5" y2="1868" stroke="#28282A" stroke-opacity="0.2" stroke-dasharray="3 3"/>
<line x1="585.5" y1="934" x2="585.5" y2="1868" stroke="#28282A" stroke-opacity="0.2" stroke-dasharray="3 3"/>
<line x1="705.5" y1="934" x2="705.5" y2="1868" stroke="#28282A" stroke-opacity="0.2" stroke-dasharray="3 3"/>
<line x1="825.5" y1="934" x2="825.5" y2="1868" stroke="#28282A" stroke-opacity="0.2" stroke-dasharray="3 3"/>
<line x1="945.5" y1="934" x2="945.5" y2="1868" stroke="#28282A" stroke-opacity="0.2" stroke-dasharray="3 3"/>
<line x1="1065.5" y1="934" x2="1065.5" y2="1868" stroke="#28282A" stroke-opacity="0.2" stroke-dasharray="3 3"/>
<line x1="1185.5" y1="934" x2="1185.5" y2="1868" stroke="#28282A" stroke-opacity="0.2" stroke-dasharray="3 3"/>
<line x1="1305.5" y1="934" x2="1305.5" y2="1868" stroke="#28282A" stroke-opacity="0.2" stroke-dasharray="3 3"/>
<line y1="-0.5" x2="19.8345" y2="-0.5" transform="matrix(-0.806677 0.590993 -0.806677 -0.590993 361 1323.02)" stroke="#C9C9C9"/>
<line y1="-0.5" x2="35.95" y2="-0.5" transform="matrix(-0.806677 0.590993 -0.806677 -0.590993 375 1323.02)" stroke="#C9C9C9"/>
<line y1="-0.5" x2="58.2637" y2="-0.5" transform="matrix(-0.806677 0.590993 -0.806677 -0.590993 392 1322.29)" stroke="#C9C9C9"/>
<line y1="-0.5" x2="78.0982" y2="-0.5" transform="matrix(-0.806677 0.590993 -0.806677 -0.590993 408 1322.29)" stroke="#C9C9C9"/>
<line y1="-0.5" x2="95.4533" y2="-0.5" transform="matrix(-0.806677 0.590993 -0.806677 -0.590993 423 1322.29)" stroke="#C9C9C9"/>
<line y1="-0.5" x2="115.288" y2="-0.5" transform="matrix(-0.806677 0.590993 -0.806677 -0.590993 438 1322.29)" stroke="#C9C9C9"/>
<line y1="-0.5" x2="132.643" y2="-0.5" transform="matrix(-0.806677 0.590993 -0.806677 -0.590993 453 1322.29)" stroke="#C9C9C9"/>
<line y1="-0.5" x2="147.519" y2="-0.5" transform="matrix(-0.806677 0.590993 -0.806677 -0.590993 465 1325.22)" stroke="#C9C9C9"/>
<line y1="-0.5" x2="147.519" y2="-0.5" transform="matrix(-0.806677 0.590993 -0.806677 -0.590993 464 1337.67)" stroke="#C9C9C9"/>
<line y1="-0.5" x2="145.039" y2="-0.5" transform="matrix(-0.806677 0.590993 -0.806677 -0.590993 463 1349.4)" stroke="#C9C9C9"/>
<line y1="-0.5" x2="145.039" y2="-0.5" transform="matrix(-0.806677 0.590993 -0.806677 -0.590993 463 1361.12)" stroke="#C9C9C9"/>
<line y1="-0.5" x2="145.039" y2="-0.5" transform="matrix(-0.806677 0.590993 -0.806677 -0.590993 463 1372.84)" stroke="#C9C9C9"/>
<line y1="-0.5" x2="147.519" y2="-0.5" transform="matrix(-0.806677 0.590993 -0.806677 -0.590993 464 1383.1)" stroke="#C9C9C9"/>
<line y1="-0.5" x2="140.081" y2="-0.5" transform="matrix(-0.806677 0.590993 -0.806677 -0.590993 465 1394.09)" stroke="#C9C9C9"/>
<line y1="-0.5" x2="117.767" y2="-0.5" transform="matrix(-0.806677 0.590993 -0.806677 -0.590993 462 1407.27)" stroke="#C9C9C9"/>
<line y1="-0.5" x2="100.412" y2="-0.5" transform="matrix(-0.806677 0.590993 -0.806677 -0.590993 464 1417.53)" stroke="#C9C9C9"/>
<line y1="-0.5" x2="81.8171" y2="-0.5" transform="matrix(-0.806677 0.590993 -0.806677 -0.590993 463 1429.25)" stroke="#C9C9C9"/>
<line y1="-0.5" x2="61.9827" y2="-0.5" transform="matrix(-0.806677 0.590993 -0.806677 -0.590993 464 1440.24)" stroke="#C9C9C9"/>
<line y1="-0.5" x2="44.6275" y2="-0.5" transform="matrix(-0.806677 0.590993 -0.806677 -0.590993 465 1450.5)" stroke="#C9C9C9"/>
<line y1="-0.5" x2="24.7931" y2="-0.5" transform="matrix(-0.806677 0.590993 -0.806677 -0.590993 465 1462.22)" stroke="#C9C9C9"/>
<line y1="-0.5" x2="4.95861" y2="-0.5" transform="matrix(-0.806677 0.590993 -0.806677 -0.590993 465 1473.95)" stroke="#C9C9C9"/>
<line y1="-0.5" x2="26.3289" y2="-0.5" transform="matrix(-0.607698 0.794168 -0.607698 -0.794168 961 1201.86)" stroke="#C9C9C9"/>
<line y1="-0.5" x2="47.7211" y2="-0.5" transform="matrix(-0.607698 0.794168 -0.607698 -0.794168 975 1201.86)" stroke="#C9C9C9"/>
<line y1="-0.5" x2="77.341" y2="-0.5" transform="matrix(-0.607698 0.794168 -0.607698 -0.794168 992 1200.55)" stroke="#C9C9C9"/>
<line y1="-0.5" x2="103.67" y2="-0.5" transform="matrix(-0.607698 0.794168 -0.607698 -0.794168 1008 1200.55)" stroke="#C9C9C9"/>
<line y1="-0.5" x2="126.708" y2="-0.5" transform="matrix(-0.607698 0.794168 -0.607698 -0.794168 1023 1200.55)" stroke="#C9C9C9"/>
<line y1="-0.5" x2="153.036" y2="-0.5" transform="matrix(-0.607698 0.794168 -0.607698 -0.794168 1038 1200.55)" stroke="#C9C9C9"/>
<line y1="-0.5" x2="176.074" y2="-0.5" transform="matrix(-0.607698 0.794168 -0.607698 -0.794168 1053 1200.55)" stroke="#C9C9C9"/>
<line y1="-0.5" x2="195.821" y2="-0.5" transform="matrix(-0.607698 0.794168 -0.607698 -0.794168 1065 1205.78)" stroke="#C9C9C9"/>
<line y1="-0.5" x2="195.821" y2="-0.5" transform="matrix(-0.607698 0.794168 -0.607698 -0.794168 1064 1228)" stroke="#C9C9C9"/>
<line y1="-0.5" x2="192.53" y2="-0.5" transform="matrix(-0.607698 0.794168 -0.607698 -0.794168 1063 1248.91)" stroke="#C9C9C9"/>
<line y1="-0.5" x2="192.53" y2="-0.5" transform="matrix(-0.607698 0.794168 -0.607698 -0.794168 1063 1269.81)" stroke="#C9C9C9"/>
<line y1="-0.5" x2="192.53" y2="-0.5" transform="matrix(-0.607698 0.794168 -0.607698 -0.794168 1063 1290.73)" stroke="#C9C9C9"/>
<line y1="-0.5" x2="195.821" y2="-0.5" transform="matrix(-0.607698 0.794168 -0.607698 -0.794168 1064 1309.02)" stroke="#C9C9C9"/>
<line y1="-0.5" x2="185.948" y2="-0.5" transform="matrix(-0.607698 0.794168 -0.607698 -0.794168 1065 1328.62)" stroke="#C9C9C9"/>
<line y1="-0.5" x2="156.328" y2="-0.5" transform="matrix(-0.607698 0.794168 -0.607698 -0.794168 1062 1352.15)" stroke="#C9C9C9"/>
<line y1="-0.5" x2="133.29" y2="-0.5" transform="matrix(-0.607698 0.794168 -0.607698 -0.794168 1064 1370.45)" stroke="#C9C9C9"/>
<line y1="-0.5" x2="108.607" y2="-0.5" transform="matrix(-0.607698 0.794168 -0.607698 -0.794168 1063 1391.35)" stroke="#C9C9C9"/>
<line y1="-0.5" x2="82.2777" y2="-0.5" transform="matrix(-0.607698 0.794168 -0.607698 -0.794168 1064 1410.95)" stroke="#C9C9C9"/>
<line y1="-0.5" x2="59.2399" y2="-0.5" transform="matrix(-0.607698 0.794168 -0.607698 -0.794168 1065 1429.25)" stroke="#C9C9C9"/>
<line y1="-0.5" x2="32.9111" y2="-0.5" transform="matrix(-0.607698 0.794168 -0.607698 -0.794168 1065 1450.16)" stroke="#C9C9C9"/>
<line y1="-0.5" x2="6.58222" y2="-0.5" transform="matrix(-0.607698 0.794168 -0.607698 -0.794168 1065 1471.07)" stroke="#C9C9C9"/>
</g>
</svg>
